<?xml version="1.0" encoding="utf-8"?>
<!-- Generator: Adobe Illustrator 24.1.2, SVG Export Plug-In . SVG Version: 6.00 Build 0)  -->
<svg version="1.1" xmlns="http://www.w3.org/2000/svg" xmlns:xlink="http://www.w3.org/1999/xlink" x="0px" y="0px"
	 viewBox="0 0 108 108" style="enable-background:new 0 0 108 108;" xml:space="preserve">
<style type="text/css">
	.st0{display:none;}
	.st1{display:inline;}
	.st2{fill:#505050;}
</style>
<g id="motorcycle-rider" class="st0">
	<g class="st1">
		<path class="st2" d="M19.43,75.6c-4.53,0-8.21,3.68-8.21,8.21c0,4.54,3.68,8.21,8.21,8.21c4.54,0,8.21-3.68,8.21-8.21
			C27.65,79.28,23.97,75.6,19.43,75.6z"/>
		<path class="st2" d="M90.83,67.26c-1.99,0-3.9,0.37-5.67,1.02l-0.92-1.83c3.36-1.11,7.62-1.4,13.03-0.26l0.57-2.18
			c0,0-7.3-2.33-14.71,0.22l-5.19-10.35c1.01,0.33,2.29,0.5,3.82,0.14c3.97-0.92,3.12-11.95,0-12.12c0,0-1.14-0.5-2.98-0.31
			c-0.08-0.21-0.18-0.42-0.3-0.61l-0.04-0.06c-0.17-0.28-0.38-0.51-0.61-0.72c-0.05-0.05-0.1-0.09-0.15-0.13
			c-0.19-0.16-0.4-0.28-0.61-0.4c-0.05-0.03-0.09-0.07-0.14-0.09c0,0.01,0,0.02,0,0.02c-1.05-0.49-2.32-0.47-3.38,0.2l-2.1,1.34
			c-0.14,0.09-0.25,0.19-0.37,0.29c-1.44-0.89-4.3-0.28-4.3-0.28l0.01,0.1l-0.01-0.09l-11.69,1.54c0,0,4.47-12.99-0.38-16.54
			l0.76-2.68c1.61,0.37,2.67,0.49,2.67,0.49c0,0,0,0,0,0c3.43,0.63,6.14,0.85,6.14,0.85c0.04-0.15,0.08-0.3,0.12-0.46l0.01,0
			c0.32-1.11,0.33-2.22,0.33-2.22c0,0,0,0,0,0c0.01-0.12,0.02-0.24,0.02-0.37c-1.11,0.29-4.97-0.6-4.97-0.6
			c-6.81-1.73-7.42-4.6-7.58-7.31c-0.13-2.04,2.13-0.93,2.13-0.93c5.46,2.2,8.89,1.25,8.94,1.23c-0.2-0.46-0.42-0.9-0.66-1.34
			c0.22-0.04,0.43-0.08,0.66-0.13c0.01,0,0.01,0,0.01,0l0,0l0,0c0,0-0.02-0.03-0.05-0.1l0,0c-0.03-0.06-0.08-0.15-0.14-0.27
			c-0.03-0.05-0.07-0.12-0.11-0.18c-0.04-0.07-0.08-0.14-0.14-0.23c-0.05-0.07-0.11-0.16-0.16-0.24c-0.06-0.09-0.11-0.17-0.18-0.27
			h0c-1.34-1.91-4.5-5.23-9.88-4.51c0,0,0,0,0,0C52.31,6.99,52,7.07,51.71,7.13c-0.24,0.05-0.47,0.08-0.72,0.14
			c-0.57,0.15-1.16,0.34-1.77,0.59c0,0,0.06,0.11,0.2,0.31c0.01,0.01,0.01,0.02,0.02,0.03c-0.87,0.44-1.55,0.96-2.07,1.55
			c0,0-0.01,0-0.01,0c-0.03,0.03-0.06,0.07-0.09,0.11c-0.11,0.12-0.2,0.25-0.3,0.38c-0.06,0.08-0.12,0.16-0.18,0.24
			c-0.05,0.07-0.08,0.14-0.12,0.21c-0.11,0.19-0.22,0.37-0.3,0.56c-0.01,0.03-0.04,0.06-0.05,0.09c0,0,0.01,0,0.01,0.01
			c-1.2,2.69-0.29,5.71,0.01,6.54c0.06,0.28,0.17,0.61,0.29,0.94c0,0-0.01,0-0.01,0c0.02,0.05,0.06,0.14,0.1,0.24
			c0.11,0.27,0.22,0.53,0.32,0.76c0.2,0.46,0.34,0.73,0.34,0.73c0.21,0.17,0.54,0.35,0.93,0.54c-0.21,0.73-0.51,1.65-0.78,2.43
			C34.17,23.95,25.98,47.8,25.98,47.8c0.01,0.25,0.05,0.49,0.1,0.71h0c0,0-1.15,2.32-0.56,4.87c-0.57-0.05-1.15-0.01-1.72,0.14
			l-5.76,1.51l-0.11,0.03l-0.53,0.14c-0.32,0.08-0.58,0.24-0.79,0.45c-0.21,0.21-0.35,0.47-0.43,0.74
			c-0.15,0.56-0.03,1.18,0.43,1.65c0.34,0.34,0.71,0.71,1.12,1.09c-5.22-0.42-11.57,1.68-17.8,10.4c0,0,0.01,0.03,0.02,0.06
			c0,0.01,0,0.01,0.01,0.02c0.03,0.1,0.1,0.27,0.19,0.49c0,0,0,0,0,0.01c0.2,0.45,0.52,1.08,0.99,1.57c0,0,0,0,0.01,0.01
			c0.12,0.12,0.24,0.23,0.37,0.33c0,0,0,0,0,0l0,0c0.38,0.29,0.84,0.47,1.37,0.41c0,0,10.68-9.58,23.46-5.18l0,0h0l0.06-0.05
			c0.03,0.01,0.06,0.03,0.09,0.04c1.38,0.61,3.07,1.25,5.01,1.81c-0.46,0.29-0.66,0.59-0.54,0.89c0,0,0.01,0.03,0.03,0.06
			c0,0.01,0.01,0.02,0.02,0.04c0.02,0.03,0.04,0.08,0.07,0.14c0.01,0.03,0.03,0.06,0.04,0.09c0.03,0.06,0.06,0.12,0.1,0.18
			c0.02,0.04,0.05,0.08,0.07,0.12c0.04,0.07,0.09,0.15,0.14,0.23c0.03,0.05,0.07,0.1,0.1,0.15c0.06,0.09,0.13,0.17,0.2,0.26
			c0.04,0.06,0.09,0.11,0.13,0.17c0.08,0.1,0.17,0.2,0.26,0.3c0.05,0.06,0.1,0.11,0.15,0.17c0.11,0.12,0.23,0.23,0.36,0.35
			c0.05,0.05,0.09,0.09,0.15,0.14c0.19,0.17,0.39,0.34,0.62,0.5l0,0h0c1.23,0.91,3.03,1.77,5.59,2.08l-0.62,1.49
			c-0.73,0.45-1.38,1.41-1.87,2.31c-0.47-0.07-0.94-0.13-1.4-0.19c-1.59-4.73-5.25-8.5-9.92-10.24c-1.8-0.67-3.73-1.05-5.76-1.05
			c-9.14,0-16.55,7.41-16.55,16.55s7.41,16.55,16.55,16.55c8.36,0,15.25-6.21,16.37-14.26l4.08,1.43l-3.31,0.08v2.14v1.62
			l25.26,0.67c0.79,0,1.56-0.18,2.25-0.51c0.23-0.11,0.45-0.24,0.66-0.38c0.28-0.19,0.53-0.41,0.77-0.66l3.67-3.92
			c0.2-0.21,0.37-0.44,0.53-0.68c0.45-0.72,0.69-1.54,0.68-2.38l0.04-0.7h1.43c0,0,0.96-9.66,8.6-14.56l0.98,1.96
			c-4.32,2.99-7.15,7.97-7.15,13.61c0,9.14,7.41,16.55,16.55,16.55s16.55-7.41,16.55-16.55S99.97,67.26,90.83,67.26z M19.43,94.32
			c-5.8,0-10.51-4.71-10.51-10.51c0-5.81,4.71-10.51,10.51-10.51s10.51,4.71,10.51,10.51C29.95,89.62,25.24,94.32,19.43,94.32z
			 M65.99,81.19c0.03,1.04-0.32,2.06-0.99,2.89l-0.94,1.16c-0.9,1.1-2.28,1.76-3.75,1.79l-8.25,0.2c0.35-0.97,0.27-1.8,0.27-1.8
			c-0.44-0.15-0.88-0.33-1.31-0.54l5.62-8.1c0.48,0.56,1.18,0.93,1.98,0.93h7.52L65.99,81.19z M50.44,25.51
			c0.42-0.09,0.87-0.08,1.36,0.06c0.62,0.18,1.14,0.46,1.59,0.81c-1.18,5.88-3.68,18.9-3.02,20.33c0.61,1.33,10.33-0.78,15.79-2.08
			l0.23,1.64c-5.39,1.27-14.98,3.41-17.19,3.06C47.05,48.99,49.45,31.99,50.44,25.51z M69.03,52.1c-0.02-0.03-0.03-0.05-0.05-0.08
			l0,0c-0.11-0.18-0.22-0.36-0.33-0.53c-0.37-0.57-0.84-1.05-1.37-1.44c1.17-0.53,2.31-1.12,3.28-1.66l0.61,1.22l-2.07,2.6
			C69.07,52.17,69.05,52.13,69.03,52.1z M59.73,49.87c0.01,0.05,0.01,0.1,0.03,0.16c-2.41,0.77-5.14,1.74-7.48,2.84
			c-0.94-0.39-1.92-0.79-2.88-1.2C51.78,51.58,56.03,50.72,59.73,49.87z M55.37,65.01c0.46-0.03,0.88-0.06,1.27-0.07
			c0.13-0.01,0.24,0,0.37-0.01c0.25-0.01,0.5-0.01,0.72-0.01c0.14,0,0.25,0.01,0.38,0.01c0.19,0.01,0.37,0.01,0.54,0.03
			c0.09,0.01,0.17,0.02,0.26,0.03l-3.52,4.43c-1.1,0.09-2.4,0.21-3.83,0.35c0.72-1.45,1.47-3.04,2.16-4.63
			C54.32,65.1,54.88,65.05,55.37,65.01z M43.13,48.07c0.82-0.7,1.82-2.04,2.9-3.73c0.21,2.85,0.65,5.23,1.22,6.43
			c-2.9-1.22-5.23-2.22-5.23-2.22h-0.05C42.7,48.26,43.13,48.07,43.13,48.07z M32.17,48.52c-3.23,9.44,22.41,5.84,21.04,8.87
			c-0.45,0.99-4.96,9.91-7.51,14.94c-0.69-0.26-1.34-0.54-1.92-0.82l6.77-13.23c0.13-0.26-0.07-0.57-0.36-0.56
			c-19.42,0.22-20.79-5.86-20.08-9.21L32.17,48.52z M72.96,72.43h-0.33l3.84-12.19l2.87,5.77C77.02,67.43,74.82,69.51,72.96,72.43z
			 M90.83,94.32c-5.81,0-10.51-4.71-10.51-10.51c0-3.27,1.5-6.2,3.85-8.13l1.06,2.13c-1.6,1.5-2.61,3.63-2.61,5.99
			c0,4.54,3.68,8.21,8.21,8.21c4.53,0,8.21-3.68,8.21-8.21c0-4.54-3.68-8.21-8.21-8.21c-0.65,0-1.28,0.08-1.88,0.23l-1.05-2.1
			c0.93-0.27,1.92-0.42,2.94-0.42c5.8,0,10.51,4.71,10.51,10.51C101.34,89.62,96.64,94.32,90.83,94.32z"/>
		<path class="st2" d="M59.81,15.24c-0.32-0.03-0.67-0.07-1.02-0.13c-0.24-0.04-0.48-0.08-0.74-0.13c-0.73-0.15-1.52-0.36-2.35-0.65
			c-0.19-0.07-0.38-0.13-0.58-0.21c0,0-0.36-0.16-0.76-0.24c-0.55-0.1-1.18-0.02-1.08,0.9c0.16,1.51,0.51,3.09,2.91,4.43
			c0.41,0.23,0.87,0.45,1.41,0.66c0.16,0.07,0.33,0.13,0.51,0.19c0.61,0.22,1.23,0.39,1.86,0.53c0.25,0.06,0.49,0.11,0.74,0.15
			c0.28,0.05,0.56,0.1,0.84,0.13c0.06,0.01,0.13,0.02,0.19,0.03c0.4,0.05,0.82,0.1,1.23,0.14c0.78,0.07,1.48,0.09,1.75-0.02h0
			c0,0,0.24-3.04-1.12-5.95h0c-0.02,0.01-0.99,0.25-2.6,0.22C60.65,15.3,60.25,15.28,59.81,15.24z"/>
	</g>
</g>
<g id="helmet" class="st0">
	<g class="st1">
		<path class="st2" d="M75.94,74.14c0.03-0.12,0.06-0.25,0.1-0.37c0.59-2.04,1.21-3.95,1.87-5.75c1.97-5.39,4.25-9.71,6.6-13.19
			c3.93-5.79,8.11-9.2,11.57-11.22c0.35-0.2,0.69-0.39,1.02-0.56c0.66-0.35,1.29-0.65,1.88-0.9c0.89-0.38,1.68-0.66,2.36-0.86
			c0.45-0.14,0.86-0.24,1.2-0.32c0.85-0.19,1.33-0.23,1.34-0.23c-1.89-3.14-4.62-6.2-8.4-9.07c0.03-0.03,0.08-0.06,0.11-0.08
			c0.89-0.7,1.35-1.12,1.35-1.12c-1.37-0.87-2.73-1.67-4.08-2.42c-0.68-0.38-1.34-0.7-2.01-1.05c-0.66-0.34-1.32-0.71-1.98-1.03
			c-0.84-0.41-1.67-0.76-2.51-1.13c-0.47-0.21-0.94-0.44-1.4-0.63c-0.88-0.36-1.74-0.68-2.6-1c-0.38-0.14-0.77-0.31-1.15-0.44
			c0,0,0,0,0,0c-25.91-9.06-45.71,1.88-54.77,8.72l0,0c-0.12,0.09-0.23,0.18-0.34,0.27c-0.3,0.23-0.6,0.46-0.88,0.68
			c-0.09,0.07-0.16,0.13-0.25,0.2c-0.3,0.24-0.59,0.48-0.86,0.7c-0.04,0.04-0.08,0.07-0.12,0.11c-0.29,0.24-0.57,0.48-0.82,0.7
			c-0.01,0.01-0.02,0.01-0.02,0.02c-1.4,1.24-2.14,2.03-2.14,2.03c1.05,0.48,2.09,0.91,3.12,1.34c-1.71,1.61-3.35,3.3-4.9,5.06
			c0.03,0.02,15.96,8.1,46.01,4.52c0,0,12.59-2.35,9.43,6.39c-4.18,11.58-10.74,23.4-46.8,23.4c0,0-20.31-0.37-25.48-2.87
			c-0.13,0.54-0.25,1.08-0.37,1.62c0,0,0,0,0,0c0,0-1.31,4.81-1.12,10.01h0.01c0,0.71,0.01,1.42,0.04,2.12c0,0,13.74,2.04,31.6,3.11
			c8.13-0.84,25.89-10.03,25.89-10.03C65.07,77.26,70.9,75.2,75.94,74.14z"/>
		<path class="st2" d="M18.29,73.42c0.33,0.04,0.66,0.07,0.99,0.1c1.45,0.15,2.89,0.26,4.34,0.35l16.66-22.45
			c-1.84-0.15-3.59-0.35-5.24-0.57L18.29,73.42z"/>
		<path class="st2" d="M12.01,72.66l16.96-22.85c-8.08-1.67-12.64-3.82-12.68-3.84l0,0C5.99,57.06,3.39,70.37,3.34,70.62
			c-0.07,0.22-0.13,0.43-0.2,0.65c0.06-0.2,0.12-0.41,0.19-0.62C4.55,71.42,8.06,72.11,12.01,72.66z"/>
		<path class="st2" d="M68.06,56.12c1.61-3.9-1.42-4.94-4.27-5.12L48.06,72.18C61.67,69.01,65.41,62.52,68.06,56.12z"/>
		<path class="st2" d="M44.11,51.67l-16.6,22.36c3.31,0.08,6.63,0.01,9.94-0.26c0.97-0.08,1.89-0.18,2.79-0.28l16.35-22.03
			C52.12,51.8,47.94,51.84,44.11,51.67z"/>
		<path class="st2" d="M107.07,48.84c-4.69,1.36-15.32,6.37-22.64,24.35c9.71-0.06,14.69,3.74,14.69,3.74
			c-0.05,0.09-0.11,0.2-0.17,0.3C101.52,73.83,109.7,61.77,107.07,48.84z"/>
		<path class="st2" d="M104.67,42.15c-0.23-0.44-0.47-0.89-0.74-1.33c-0.01-0.02-0.02-0.05-0.04-0.07c0.38,0.63,0.72,1.26,1.04,1.89
			C104.85,42.48,104.76,42.31,104.67,42.15z"/>
		<path class="st2" d="M56.84,91.49c0,0,9.4-0.3,18.51-1.16c-1.78,0.22-3.55,0.41-5.28,0.57c2.88-0.22,5.69-0.52,8.44-0.89
			c4.92-0.55,9.41-1.27,11.82-2.22c0,0,0.99-0.96,2.5-2.67c0.83-0.91,1.76-1.98,2.68-3.1c0.33-0.38,0.61-0.71,0.79-0.92
			c0,0-0.01-0.01-0.03-0.02C95.7,80.61,84.57,71.97,56.84,91.49z"/>
	</g>
</g>
<g id="Layer_3">
	<g>
		<path class="st2" d="M19.72,66.59c-4.45,0-8.17,3.72-8.17,8.17s3.72,8.17,8.17,8.17c4.45,0,8.17-3.72,8.17-8.17
			S24.18,66.59,19.72,66.59z M19.72,79.57c-2.62,0-4.81-2.19-4.81-4.81c0-2.62,2.19-4.81,4.81-4.81c2.62,0,4.81,2.19,4.81,4.81
			C24.53,77.38,22.34,79.57,19.72,79.57z"/>
		<path class="st2" d="M25.46,59.33c-6.05-2.25-12.99-0.71-17.5,3.9c-4.23,4.32-5.76,10.77-3.93,16.53
			c1.79,5.63,6.63,9.97,12.42,11.14c5.97,1.2,12.24-1.05,16.07-5.79C39.47,76.52,35.83,63.19,25.46,59.33z M19.72,85.22
			c-5.7,0-10.46-4.76-10.46-10.46c0-5.7,4.76-10.46,10.46-10.46c5.7,0,10.46,4.76,10.46,10.46C30.19,80.46,25.43,85.22,19.72,85.22z
			"/>
		<path class="st2" d="M90.8,58.29c-1.98,0-3.88,0.37-5.64,1.01l-0.92-1.82c3.35-1.1,7.58-1.39,12.97-0.26l0.57-2.17
			c0,0-7.27-2.32-14.64,0.22l-5.17-10.3c-3.09-1.02-3.84-4.18-3.6-7.18l0.23-1.51c0.22-0.93,0.52-1.79,1.25-2.45
			c0-0.01,0-0.03,0-0.04l0.13-0.06c0.45-0.37,0.93-0.58,1.49-0.73l0.41-0.2c1.69-1.2,5.85-5.19,2.02-6.64c0,0,0,0,0,0l0,0
			c-1.92-0.73-2.52,1.31-3.63,2.46l0.75-3.08c1.07-0.7,1.38-2.63,0.55-3.64v0l0,0c-1.55-1.87-3.73,2.6-1.67,3.72l-0.81,4.16
			c-0.28,0.26-0.55,0.52-0.82,0.76h0l0,0v0c-0.97-0.66-2.25-0.82-3.41-0.32l-2.33,1c-1.16,0.5-1.91,1.53-2.11,2.68
			c-1.26,0.34-2.43,0.64-3.51,0.91l-4.02-3.3c0.68-0.95,0.9-2.24,0.3-3.29l0,0c-1.45-2.36-4.73-0.5-5.28,1.59c0,0,0,0,0,0
			c-0.69,2.55,1.98,4.03,4.04,2.62l3.65,2.72c-3.8,0.97-6.07,1.65-6.22,2.8h0c0,0,0,0,0,0c-0.31,2.5,3.74,2.22,5.12,2
			c2.62-0.42,5.18-1.31,7.63-2.29c0.56,0.34,1.17,0.5,1.82,0.51l1.27,2.54l-2.06,2.59c-0.04-0.06-0.07-0.12-0.11-0.18l0,0
			c-1.17-1.91-3.02-3.19-5.35-3.01c-2.03,0.16-4.2,1.12-6.11,1.78c-2.13,0.74-4.25,1.56-6.27,2.6c-1.53,0.78-3.34,1.75-4.27,3.26
			c-2.17-0.99-5.22,0.81-7.35,1.38c-2.52,0.68-5.84,1.79-7.96-0.35l-2.81-2.84c-1.27-1.28-3.13-1.79-4.87-1.33l-5.74,1.5v0
			l-0.39,0.1l-0.25,0.07c-0.81,0.21-1.35,1-1.26,1.83c0.1,0.89,0.99,1.52,1.59,2.09C10.48,49.59,4.43,54.78,0.3,60.55
			c0.3,0.91,0.79,1.9,1.58,2.48v0c0.38,0.29,0.83,0.47,1.36,0.41c0,0,10.63-9.54,23.35-5.15c0.61,0.27,1.32,0.54,2.07,0.81l0,0
			c5.43,2.25,7.81,7.71,8.77,10.91c0.42,1.67,0.85,3.54,0.69,6.17c4.15,0.33,8.32,0.69,12.47,0.92c4.91,0.27,9.78-0.96,14.5-2.11
			c0.32-0.4,0.57-0.86,0.74-1.34c-0.17,0.5-0.43,0.97-0.77,1.39l-0.94,1.15c-0.89,1.09-2.26,1.75-3.73,1.78l-10.92,0.26l-8.27,0.2
			l-1.13,0.03l-2.33,0.04l-0.36,2.13l-0.36,1.64l24.9,0.67h0c1.36,0,2.72-0.55,3.65-1.55l3.66-3.9c0.77-0.82,1.22-1.92,1.2-3.05
			l0.04-0.7h1.43c0,0,0.96-9.62,8.56-14.49l0.97,1.95c-5.48,3.79-8.18,10.68-6.72,17.18c1.29,5.76,5.74,10.51,11.41,12.18
			c5.79,1.71,12.21,0.04,16.43-4.28c4.23-4.32,5.76-10.77,3.93-16.53C104.35,63,97.89,58.29,90.8,58.29z M48.66,51.46
			c1.58,0.77,3.65,0.72,5.37,0.85c2.6,0.2,5.21,0.28,7.82,0.19c-0.47,0.59-0.94,1.18-1.41,1.77c-0.36,0.46-1.05,1.79-1.67,1.74
			c0.09,0.01,0.18,0.02,0.26,0.03c-0.16,0.19-1.84-0.05-2.11-0.04c-1.29,0.02-2.59,0.12-3.87,0.28c-0.89,0.11-1.36-0.41-2.12-0.85
			c-1.07-0.62-2.19-1.14-3.33-1.6C48.1,53.13,48.47,52.35,48.66,51.46C48.96,51.6,48.47,52.35,48.66,51.46z M58.71,68.69
			c-1.05,0-2.04-0.68-2.42-1.66c0.38-0.97,1.32-1.66,2.42-1.66h8.35l-1.02,3.33H58.71z M66.02,72.92c-0.03,0.23-0.09,0.46-0.17,0.68
			C65.93,73.38,65.99,73.15,66.02,72.92z M73.01,63.44h-0.33L76.5,51.3l2.86,5.74C77.05,58.46,74.85,60.52,73.01,63.44z M91.73,72.4
			l-1.21-2.42c4.8-0.29,6.96,6.18,2.9,8.81c-4.29,2.79-9.5-2.52-6.58-6.75l1.09,2.2C89.19,76.75,93.02,74.98,91.73,72.4z
			 M90.8,85.22c-4.13,0-7.97-2.52-9.61-6.31c-1.83-4.24-0.59-9.31,2.97-12.24l1.06,2.12c-3.1,2.9-3.45,7.83-0.77,11.12
			c2.48,3.06,6.94,3.91,10.38,1.96c3.42-1.94,5-6.19,3.66-9.9c-1.4-3.86-5.57-6.11-9.56-5.17l-1.05-2.09
			c6.17-1.79,12.67,2.55,13.33,8.95C101.84,79.76,96.93,85.22,90.8,85.22z"/>
		<path class="st2" d="M78.33,33.74c-3.36,0.91-3.1,5.66-2.15,8.25c0.86,2.34,5.36,3.72,7.11,1.57c1.23-1.51,1.26-3.94,1.04-5.78
			c-0.15-1.2-0.61-3.92-2.24-4C82.1,33.78,80.61,33.13,78.33,33.74C78.23,33.77,80.61,33.13,78.33,33.74z"/>
	</g>
</g>
</svg>
